<?xml version="1.0" standalone="no"?>
<!DOCTYPE svg PUBLIC "-//W3C//DTD SVG 20010904//EN"
 "http://www.w3.org/TR/2001/REC-SVG-20010904/DTD/svg10.dtd">
<svg version="1.0" xmlns="http://www.w3.org/2000/svg"
 width="513.000000pt" height="513.000000pt" viewBox="0 0 513.000000 513.000000"
 preserveAspectRatio="xMidYMid meet">
<metadata>
Created by potrace 1.14, written by Peter Selinger 2001-2017
</metadata>
<g transform="translate(0.000000,513.000000) scale(0.100000,-0.100000)"
fill="#000000" stroke="none">
<path d="M2440 5116 c-3 -2 -39 -7 -80 -11 -41 -4 -84 -9 -95 -11 -11 -2 -33
-6 -50 -8 -84 -12 -172 -30 -189 -38 -12 -7 -16 -7 -12 0 4 7 -3 7 -21 1 -231
-75 -292 -98 -370 -137 -51 -25 -93 -49 -93 -53 0 -3 -13 -12 -30 -19 -16 -7
-30 -15 -30 -19 0 -3 -16 -17 -35 -29 l-34 -24 -56 25 c-30 14 -55 24 -55 22
0 -3 -11 0 -24 5 -30 11 -108 14 -156 5 -94 -17 -206 -96 -255 -180 -112 -189
-58 -377 133 -472 44 -22 53 -30 48 -47 -14 -57 -37 -210 -44 -286 -9 -123 -4
-555 7 -555 1 0 3 -40 5 -90 3 -49 7 -115 10 -145 12 -120 16 -169 22 -260 12
-198 14 -188 -21 -188 -71 -1 -124 -14 -190 -47 -110 -56 -164 -148 -116 -199
11 -12 21 -30 21 -40 0 -10 13 -30 28 -46 24 -24 34 -27 73 -24 68 7 69 7 69
14 0 3 16 12 35 20 19 8 35 17 35 20 0 4 16 12 36 18 l35 10 -6 -91 c-3 -51
-8 -108 -10 -127 -2 -19 -6 -71 -10 -115 -3 -44 -8 -114 -12 -155 -9 -104 -9
-520 0 -606 4 -39 12 -96 17 -125 6 -30 13 -66 15 -82 3 -15 16 -61 29 -102
13 -41 21 -77 18 -80 -3 -3 1 -5 8 -5 7 0 11 -3 7 -6 -7 -7 93 -204 104 -204
4 0 10 -8 14 -19 6 -19 26 -44 97 -117 l39 -41 -63 -46 c-115 -83 -178 -164
-178 -230 0 -43 29 -96 60 -112 17 -9 30 -20 30 -25 0 -20 66 -43 102 -36 31
6 114 53 144 81 6 6 31 27 54 46 23 18 47 39 54 44 6 6 35 21 65 34 62 26 81
25 191 -14 41 -15 82 -28 91 -30 9 -2 36 -8 60 -15 100 -26 119 -30 165 -36
27 -3 51 -7 54 -9 29 -18 517 -28 625 -12 28 4 73 10 100 13 28 4 59 8 70 10
11 2 34 7 50 10 17 3 64 14 105 25 41 11 82 21 90 24 53 14 148 50 214 80 59
28 80 34 95 26 10 -6 58 -53 106 -106 99 -107 124 -126 173 -132 38 -5 68 7
123 49 56 43 67 83 47 170 -8 35 -70 118 -128 171 -33 31 -60 60 -60 64 0 4
15 22 32 38 28 27 158 215 158 229 0 3 11 29 24 58 24 53 75 189 81 218 2 8 8
34 15 58 6 24 13 55 15 70 2 15 8 52 14 82 42 230 49 635 17 1048 -1 18 0 31
4 30 3 -2 31 -16 63 -32 86 -43 150 -42 184 3 7 9 13 23 13 32 0 9 9 28 20 42
11 14 20 35 20 47 0 84 -137 184 -270 197 -24 2 -47 6 -49 9 -3 3 -6 83 -7
177 -1 95 -3 177 -4 182 -1 6 -1 15 0 20 4 19 0 128 -6 136 -3 5 -1 9 4 9 6 0
9 8 7 18 -12 59 -13 92 -3 86 7 -4 8 -2 4 4 -4 7 -9 74 -11 149 -3 76 -8 181
-11 233 -3 52 -7 112 -7 132 -1 21 -4 38 -7 38 -3 0 -6 15 -6 33 -2 54 -39
267 -59 342 -5 16 5 25 50 49 69 36 126 92 156 154 33 69 33 185 -1 270 -29
75 -103 158 -170 192 -117 60 -222 59 -354 -4 l-50 -23 -44 33 c-64 50 -147
96 -237 133 -44 19 -84 34 -90 36 -5 1 -17 5 -25 8 -8 3 -28 9 -45 13 -16 4
-34 8 -40 10 -42 12 -182 36 -235 40 -36 3 -68 8 -73 11 -10 6 -421 15 -427 9z"/>
</g>
</svg>
